<svg xmlns="http://www.w3.org/2000/svg" width="132.075" height="50" viewBox="0 0 132.075 50"><g transform="translate(0 -124.315)"><rect width="49.374" height="49.999" transform="translate(82.701 124.316)" fill="#1361a2"/><rect width="81.469" height="49.999" transform="translate(0 124.316)" fill="#1361a2"/><path d="M646.121,124.315l-18.841,24.695h2.834l18.773-24.695Z" transform="translate(-516.814)" fill="#e1001e"/><path d="M507.348,281.685c.859,2.441,2.628,8.778,3.341,9.292h-4.66a7.823,7.823,0,0,0-.22-1.665c-.2-.724-1.883-6.211-1.883-6.211h-7.394l-1.165,1.669s1.4,4.426,1.483,4.641c.153.4.818,1.566.818,1.566h-4.462s-.113-.682-.156-.955c-.036-.232-.426-1.482-.426-1.482a13.786,13.786,0,0,0-1.283,1.647c-.283.518-.4.79-.4.79H487.45s-.119-.682-.16-.955c-.04-.232-.457-1.582-.457-1.582a18.118,18.118,0,0,0-1.262,1.723,8.353,8.353,0,0,0-.39.814h-3.46s.976-.943,1.319-1.348c.578-.688,2.719-3.518,2.719-3.518l-.857-3.01h-7.339s-4.187,5.565-4.353,5.742a16.6,16.6,0,0,0-1.412,2.134h-2.18v-1.406c.05-.038.073-.074.091-.086.065-.046,3.169-3.953,6.022-7.8,2.562-3.359,4.971-6.622,5.178-6.933a21.826,21.826,0,0,0,1.246-2.373h3.794a17.834,17.834,0,0,0,.23,1.853c.1.325,2.412,8,2.469,8.088l1.272-1.656-2.18-6.813a11.239,11.239,0,0,0-.681-1.472h4.434a3.878,3.878,0,0,0,.143,1.217c.18.566,1.129,4.039,1.129,4.039s3.026-3.839,3.2-4.121a2.454,2.454,0,0,0,.37-1.135h3.7a11.708,11.708,0,0,0-1.861,2.018l-4.3,5.529s.345,1.175.511,1.759c.042.168.073.283.073.295s.085-.106.23-.295c1.01-1.288,5.587-7.37,5.864-7.888a11.89,11.89,0,0,0,.747-1.418h3.6a9.641,9.641,0,0,0,.194,1.39Zm-5.486-5.754a48.4,48.4,0,0,1-3.644,4.992h4.935s-.958-2.982-1.129-3.652a5.62,5.62,0,0,1-.091-1.308c0-.062-.01-.156-.071-.032m-18.942,0a49.722,49.722,0,0,1-3.642,4.992h4.929s-.956-2.982-1.121-3.652a5.371,5.371,0,0,1-.1-1.308c0-.062-.014-.156-.065-.032m7.422,11.642,1.36-1.887c-.129-.138-.891-2.485-.891-2.485l-1.319,1.721Z" transform="translate(-386.916 -121.658)" fill="#fff"/><rect width="2.806" height="18.678" transform="translate(10.831 150.783)" fill="#fff"/><rect width="2.806" height="18.678" transform="translate(24.428 150.783)" fill="#fff"/><rect width="2.804" height="11.618" transform="translate(49.58 157.843)" fill="#fff"/><rect width="2.804" height="11.618" transform="translate(65.874 157.843)" fill="#fff"/><path d="M82.027,312.395s3.323-2.381,6.175-.156a4.463,4.463,0,0,1,1.285,1.825,9.334,9.334,0,0,1,.325,4.866c-.707,4.023-3.452,4.563-5.4,4.18s-2.422-1.117-2.422-1.117a8.132,8.132,0,0,0,2.98-.271c1.406-.457,1.709-1.181,1.945-2.663s.194-4.707-.754-5.684-4.044-.854-4.044-.854-.178-.08-.093-.124" transform="translate(-67.554 -153.628)" fill="#fff"/><path d="M159.5,312.3s3.075-2.142,5.949-.349c.947.6,1.289,2.17,1.313,3.349l.01,7.709-2.816.038-.024-8.076s.024-2.022-1.7-2.371a7.907,7.907,0,0,0-2.715-.164s-.091-.086-.018-.136" transform="translate(-131.392 -153.584)" fill="#fff"/><path d="M221.346,312.6s3.424-2.08,6.527-.391a3.849,3.849,0,0,1,1.428,3.349l.016,7.707-2.82.04-.024-8.076a2.463,2.463,0,0,0-2.091-2.37,10.293,10.293,0,0,0-3.018-.11s-.095-.094-.018-.148" transform="translate(-182.341 -153.84)" fill="#fff"/><path d="M300.4,314a4.214,4.214,0,0,1,3.545-2.651V314Z" transform="translate(-247.5 -153.673)" fill="#fff"/><path d="M332.3,293.725v3.317h3.153V298.3h-3.184v7.174s-.061,2.005,1.65,1.887,1.661.046,1.661.046a.258.258,0,0,1-.1.251,4.3,4.3,0,0,1-3.963.948,2.983,2.983,0,0,1-1.521-1,4.654,4.654,0,0,1-.545-2.064c-.016-.074,0-10.393,0-10.393l2.483-1.422Z" transform="translate(-271.43 -139.197)" fill="#fff"/><path d="M215.087,339.552a1.742,1.742,0,0,1,.41-.255,3.812,3.812,0,0,1,1.933-.173s.4,0,.133-.184a4.066,4.066,0,0,0-2.377-.884,3.351,3.351,0,0,0-3.582,2.984,5.687,5.687,0,0,0,.331,2.132,2.757,2.757,0,0,0,2.444,1.937c2.083.155,3.234-.77,3.236-.9s-.081-.14-.147-.124-2.42.3-2.812-1.059a5.728,5.728,0,0,1-.087-2.577,2.146,2.146,0,0,1,.519-.9" transform="translate(-174.338 -175.611)" fill="#fff"/><path d="M373.969,272.091h2.846L374,275.346Z" transform="translate(-308.111 -121.421)" fill="#008ad8"/><path d="M385.132,283.237v5.068l-4.39-5.08Z" transform="translate(-313.692 -130.569)" fill="#ffa600"/></g></svg>